<?xml version="1.0" encoding="utf-8"?>
<svg width="468" height="468" viewBox="0 0 468 468" xmlns="http://www.w3.org/2000/svg" xmlns:xlink="http://www.w3.org/1999/xlink">
    <rect width="468" height="468" fill="#ffffff"/>
    <defs>
        <rect id="p" width="12" height="12" />
    </defs>
    <g>
        <use x="36" y="36" xlink:href="#p" fill="#000000" />
        <use x="48" y="36" xlink:href="#p" fill="#000000" />
        <use x="60" y="36" xlink:href="#p" fill="#000000" />
        <use x="72" y="36" xlink:href="#p" fill="#000000" />
        <use x="84" y="36" xlink:href="#p" fill="#000000" />
        <use x="96" y="36" xlink:href="#p" fill="#000000" />
        <use x="108" y="36" xlink:href="#p" fill="#000000" />
        <use x="144" y="36" xlink:href="#p" fill="#000000" />
        <use x="180" y="36" xlink:href="#p" fill="#000000" />
        <use x="192" y="36" xlink:href="#p" fill="#000000" />
        <use x="204" y="36" xlink:href="#p" fill="#000000" />
        <use x="228" y="36" xlink:href="#p" fill="#000000" />
        <use x="240" y="36" xlink:href="#p" fill="#000000" />
        <use x="252" y="36" xlink:href="#p" fill="#000000" />
        <use x="264" y="36" xlink:href="#p" fill="#000000" />
        <use x="276" y="36" xlink:href="#p" fill="#000000" />
        <use x="300" y="36" xlink:href="#p" fill="#000000" />
        <use x="312" y="36" xlink:href="#p" fill="#000000" />
        <use x="348" y="36" xlink:href="#p" fill="#000000" />
        <use x="360" y="36" xlink:href="#p" fill="#000000" />
        <use x="372" y="36" xlink:href="#p" fill="#000000" />
        <use x="384" y="36" xlink:href="#p" fill="#000000" />
        <use x="396" y="36" xlink:href="#p" fill="#000000" />
        <use x="408" y="36" xlink:href="#p" fill="#000000" />
        <use x="420" y="36" xlink:href="#p" fill="#000000" />
        <use x="36" y="48" xlink:href="#p" fill="#000000" />
        <use x="108" y="48" xlink:href="#p" fill="#000000" />
        <use x="132" y="48" xlink:href="#p" fill="#000000" />
        <use x="144" y="48" xlink:href="#p" fill="#000000" />
        <use x="156" y="48" xlink:href="#p" fill="#000000" />
        <use x="204" y="48" xlink:href="#p" fill="#000000" />
        <use x="252" y="48" xlink:href="#p" fill="#000000" />
        <use x="264" y="48" xlink:href="#p" fill="#000000" />
        <use x="276" y="48" xlink:href="#p" fill="#000000" />
        <use x="300" y="48" xlink:href="#p" fill="#000000" />
        <use x="312" y="48" xlink:href="#p" fill="#000000" />
        <use x="348" y="48" xlink:href="#p" fill="#000000" />
        <use x="420" y="48" xlink:href="#p" fill="#000000" />
        <use x="36" y="60" xlink:href="#p" fill="#000000" />
        <use x="60" y="60" xlink:href="#p" fill="#000000" />
        <use x="72" y="60" xlink:href="#p" fill="#000000" />
        <use x="84" y="60" xlink:href="#p" fill="#000000" />
        <use x="108" y="60" xlink:href="#p" fill="#000000" />
        <use x="156" y="60" xlink:href="#p" fill="#000000" />
        <use x="180" y="60" xlink:href="#p" fill="#000000" />
        <use x="192" y="60" xlink:href="#p" fill="#000000" />
        <use x="204" y="60" xlink:href="#p" fill="#000000" />
        <use x="228" y="60" xlink:href="#p" fill="#000000" />
        <use x="240" y="60" xlink:href="#p" fill="#000000" />
        <use x="252" y="60" xlink:href="#p" fill="#000000" />
        <use x="348" y="60" xlink:href="#p" fill="#000000" />
        <use x="372" y="60" xlink:href="#p" fill="#000000" />
        <use x="384" y="60" xlink:href="#p" fill="#000000" />
        <use x="396" y="60" xlink:href="#p" fill="#000000" />
        <use x="420" y="60" xlink:href="#p" fill="#000000" />
        <use x="36" y="72" xlink:href="#p" fill="#000000" />
        <use x="60" y="72" xlink:href="#p" fill="#000000" />
        <use x="72" y="72" xlink:href="#p" fill="#000000" />
        <use x="84" y="72" xlink:href="#p" fill="#000000" />
        <use x="108" y="72" xlink:href="#p" fill="#000000" />
        <use x="156" y="72" xlink:href="#p" fill="#000000" />
        <use x="192" y="72" xlink:href="#p" fill="#000000" />
        <use x="204" y="72" xlink:href="#p" fill="#000000" />
        <use x="228" y="72" xlink:href="#p" fill="#000000" />
        <use x="240" y="72" xlink:href="#p" fill="#000000" />
        <use x="252" y="72" xlink:href="#p" fill="#000000" />
        <use x="276" y="72" xlink:href="#p" fill="#000000" />
        <use x="348" y="72" xlink:href="#p" fill="#000000" />
        <use x="372" y="72" xlink:href="#p" fill="#000000" />
        <use x="384" y="72" xlink:href="#p" fill="#000000" />
        <use x="396" y="72" xlink:href="#p" fill="#000000" />
        <use x="420" y="72" xlink:href="#p" fill="#000000" />
        <use x="36" y="84" xlink:href="#p" fill="#000000" />
        <use x="60" y="84" xlink:href="#p" fill="#000000" />
        <use x="72" y="84" xlink:href="#p" fill="#000000" />
        <use x="84" y="84" xlink:href="#p" fill="#000000" />
        <use x="108" y="84" xlink:href="#p" fill="#000000" />
        <use x="132" y="84" xlink:href="#p" fill="#000000" />
        <use x="144" y="84" xlink:href="#p" fill="#000000" />
        <use x="156" y="84" xlink:href="#p" fill="#000000" />
        <use x="168" y="84" xlink:href="#p" fill="#000000" />
        <use x="204" y="84" xlink:href="#p" fill="#000000" />
        <use x="228" y="84" xlink:href="#p" fill="#000000" />
        <use x="240" y="84" xlink:href="#p" fill="#000000" />
        <use x="252" y="84" xlink:href="#p" fill="#000000" />
        <use x="276" y="84" xlink:href="#p" fill="#000000" />
        <use x="288" y="84" xlink:href="#p" fill="#000000" />
        <use x="300" y="84" xlink:href="#p" fill="#000000" />
        <use x="312" y="84" xlink:href="#p" fill="#000000" />
        <use x="348" y="84" xlink:href="#p" fill="#000000" />
        <use x="372" y="84" xlink:href="#p" fill="#000000" />
        <use x="384" y="84" xlink:href="#p" fill="#000000" />
        <use x="396" y="84" xlink:href="#p" fill="#000000" />
        <use x="420" y="84" xlink:href="#p" fill="#000000" />
        <use x="36" y="96" xlink:href="#p" fill="#000000" />
        <use x="108" y="96" xlink:href="#p" fill="#000000" />
        <use x="144" y="96" xlink:href="#p" fill="#000000" />
        <use x="156" y="96" xlink:href="#p" fill="#000000" />
        <use x="180" y="96" xlink:href="#p" fill="#000000" />
        <use x="192" y="96" xlink:href="#p" fill="#000000" />
        <use x="216" y="96" xlink:href="#p" fill="#000000" />
        <use x="228" y="96" xlink:href="#p" fill="#000000" />
        <use x="252" y="96" xlink:href="#p" fill="#000000" />
        <use x="264" y="96" xlink:href="#p" fill="#000000" />
        <use x="276" y="96" xlink:href="#p" fill="#000000" />
        <use x="288" y="96" xlink:href="#p" fill="#000000" />
        <use x="312" y="96" xlink:href="#p" fill="#000000" />
        <use x="348" y="96" xlink:href="#p" fill="#000000" />
        <use x="420" y="96" xlink:href="#p" fill="#000000" />
        <use x="36" y="108" xlink:href="#p" fill="#000000" />
        <use x="48" y="108" xlink:href="#p" fill="#000000" />
        <use x="60" y="108" xlink:href="#p" fill="#000000" />
        <use x="72" y="108" xlink:href="#p" fill="#000000" />
        <use x="84" y="108" xlink:href="#p" fill="#000000" />
        <use x="96" y="108" xlink:href="#p" fill="#000000" />
        <use x="108" y="108" xlink:href="#p" fill="#000000" />
        <use x="132" y="108" xlink:href="#p" fill="#000000" />
        <use x="156" y="108" xlink:href="#p" fill="#000000" />
        <use x="180" y="108" xlink:href="#p" fill="#000000" />
        <use x="204" y="108" xlink:href="#p" fill="#000000" />
        <use x="228" y="108" xlink:href="#p" fill="#000000" />
        <use x="252" y="108" xlink:href="#p" fill="#000000" />
        <use x="276" y="108" xlink:href="#p" fill="#000000" />
        <use x="300" y="108" xlink:href="#p" fill="#000000" />
        <use x="324" y="108" xlink:href="#p" fill="#000000" />
        <use x="348" y="108" xlink:href="#p" fill="#000000" />
        <use x="360" y="108" xlink:href="#p" fill="#000000" />
        <use x="372" y="108" xlink:href="#p" fill="#000000" />
        <use x="384" y="108" xlink:href="#p" fill="#000000" />
        <use x="396" y="108" xlink:href="#p" fill="#000000" />
        <use x="408" y="108" xlink:href="#p" fill="#000000" />
        <use x="420" y="108" xlink:href="#p" fill="#000000" />
        <use x="144" y="120" xlink:href="#p" fill="#000000" />
        <use x="156" y="120" xlink:href="#p" fill="#000000" />
        <use x="180" y="120" xlink:href="#p" fill="#000000" />
        <use x="204" y="120" xlink:href="#p" fill="#000000" />
        <use x="216" y="120" xlink:href="#p" fill="#000000" />
        <use x="240" y="120" xlink:href="#p" fill="#000000" />
        <use x="252" y="120" xlink:href="#p" fill="#000000" />
        <use x="264" y="120" xlink:href="#p" fill="#000000" />
        <use x="288" y="120" xlink:href="#p" fill="#000000" />
        <use x="300" y="120" xlink:href="#p" fill="#000000" />
        <use x="324" y="120" xlink:href="#p" fill="#000000" />
        <use x="36" y="132" xlink:href="#p" fill="#000000" />
        <use x="60" y="132" xlink:href="#p" fill="#000000" />
        <use x="84" y="132" xlink:href="#p" fill="#000000" />
        <use x="108" y="132" xlink:href="#p" fill="#000000" />
        <use x="156" y="132" xlink:href="#p" fill="#000000" />
        <use x="168" y="132" xlink:href="#p" fill="#000000" />
        <use x="192" y="132" xlink:href="#p" fill="#000000" />
        <use x="228" y="132" xlink:href="#p" fill="#000000" />
        <use x="240" y="132" xlink:href="#p" fill="#000000" />
        <use x="276" y="132" xlink:href="#p" fill="#000000" />
        <use x="288" y="132" xlink:href="#p" fill="#000000" />
        <use x="324" y="132" xlink:href="#p" fill="#000000" />
        <use x="372" y="132" xlink:href="#p" fill="#000000" />
        <use x="408" y="132" xlink:href="#p" fill="#000000" />
        <use x="48" y="144" xlink:href="#p" fill="#000000" />
        <use x="84" y="144" xlink:href="#p" fill="#000000" />
        <use x="96" y="144" xlink:href="#p" fill="#000000" />
        <use x="120" y="144" xlink:href="#p" fill="#000000" />
        <use x="132" y="144" xlink:href="#p" fill="#000000" />
        <use x="144" y="144" xlink:href="#p" fill="#000000" />
        <use x="156" y="144" xlink:href="#p" fill="#000000" />
        <use x="192" y="144" xlink:href="#p" fill="#000000" />
        <use x="240" y="144" xlink:href="#p" fill="#000000" />
        <use x="276" y="144" xlink:href="#p" fill="#000000" />
        <use x="288" y="144" xlink:href="#p" fill="#000000" />
        <use x="300" y="144" xlink:href="#p" fill="#000000" />
        <use x="324" y="144" xlink:href="#p" fill="#000000" />
        <use x="336" y="144" xlink:href="#p" fill="#000000" />
        <use x="348" y="144" xlink:href="#p" fill="#000000" />
        <use x="360" y="144" xlink:href="#p" fill="#000000" />
        <use x="408" y="144" xlink:href="#p" fill="#000000" />
        <use x="420" y="144" xlink:href="#p" fill="#000000" />
        <use x="36" y="156" xlink:href="#p" fill="#000000" />
        <use x="48" y="156" xlink:href="#p" fill="#000000" />
        <use x="60" y="156" xlink:href="#p" fill="#000000" />
        <use x="72" y="156" xlink:href="#p" fill="#000000" />
        <use x="84" y="156" xlink:href="#p" fill="#000000" />
        <use x="108" y="156" xlink:href="#p" fill="#000000" />
        <use x="120" y="156" xlink:href="#p" fill="#000000" />
        <use x="144" y="156" xlink:href="#p" fill="#000000" />
        <use x="156" y="156" xlink:href="#p" fill="#000000" />
        <use x="168" y="156" xlink:href="#p" fill="#000000" />
        <use x="204" y="156" xlink:href="#p" fill="#000000" />
        <use x="228" y="156" xlink:href="#p" fill="#000000" />
        <use x="252" y="156" xlink:href="#p" fill="#000000" />
        <use x="300" y="156" xlink:href="#p" fill="#000000" />
        <use x="336" y="156" xlink:href="#p" fill="#000000" />
        <use x="360" y="156" xlink:href="#p" fill="#000000" />
        <use x="396" y="156" xlink:href="#p" fill="#000000" />
        <use x="408" y="156" xlink:href="#p" fill="#000000" />
        <use x="420" y="156" xlink:href="#p" fill="#000000" />
        <use x="48" y="168" xlink:href="#p" fill="#000000" />
        <use x="96" y="168" xlink:href="#p" fill="#000000" />
        <use x="156" y="168" xlink:href="#p" fill="#000000" />
        <use x="180" y="168" xlink:href="#p" fill="#000000" />
        <use x="192" y="168" xlink:href="#p" fill="#000000" />
        <use x="204" y="168" xlink:href="#p" fill="#000000" />
        <use x="216" y="168" xlink:href="#p" fill="#000000" />
        <use x="240" y="168" xlink:href="#p" fill="#000000" />
        <use x="252" y="168" xlink:href="#p" fill="#000000" />
        <use x="276" y="168" xlink:href="#p" fill="#000000" />
        <use x="288" y="168" xlink:href="#p" fill="#000000" />
        <use x="312" y="168" xlink:href="#p" fill="#000000" />
        <use x="336" y="168" xlink:href="#p" fill="#000000" />
        <use x="348" y="168" xlink:href="#p" fill="#000000" />
        <use x="372" y="168" xlink:href="#p" fill="#000000" />
        <use x="408" y="168" xlink:href="#p" fill="#000000" />
        <use x="420" y="168" xlink:href="#p" fill="#000000" />
        <use x="96" y="180" xlink:href="#p" fill="#000000" />
        <use x="108" y="180" xlink:href="#p" fill="#000000" />
        <use x="144" y="180" xlink:href="#p" fill="#000000" />
        <use x="168" y="180" xlink:href="#p" fill="#000000" />
        <use x="180" y="180" xlink:href="#p" fill="#000000" />
        <use x="204" y="180" xlink:href="#p" fill="#000000" />
        <use x="228" y="180" xlink:href="#p" fill="#000000" />
        <use x="252" y="180" xlink:href="#p" fill="#000000" />
        <use x="264" y="180" xlink:href="#p" fill="#000000" />
        <use x="276" y="180" xlink:href="#p" fill="#000000" />
        <use x="300" y="180" xlink:href="#p" fill="#000000" />
        <use x="324" y="180" xlink:href="#p" fill="#000000" />
        <use x="372" y="180" xlink:href="#p" fill="#000000" />
        <use x="384" y="180" xlink:href="#p" fill="#000000" />
        <use x="408" y="180" xlink:href="#p" fill="#000000" />
        <use x="36" y="192" xlink:href="#p" fill="#000000" />
        <use x="84" y="192" xlink:href="#p" fill="#000000" />
        <use x="96" y="192" xlink:href="#p" fill="#000000" />
        <use x="132" y="192" xlink:href="#p" fill="#000000" />
        <use x="144" y="192" xlink:href="#p" fill="#000000" />
        <use x="168" y="192" xlink:href="#p" fill="#000000" />
        <use x="180" y="192" xlink:href="#p" fill="#000000" />
        <use x="204" y="192" xlink:href="#p" fill="#000000" />
        <use x="216" y="192" xlink:href="#p" fill="#000000" />
        <use x="228" y="192" xlink:href="#p" fill="#000000" />
        <use x="240" y="192" xlink:href="#p" fill="#000000" />
        <use x="252" y="192" xlink:href="#p" fill="#000000" />
        <use x="264" y="192" xlink:href="#p" fill="#000000" />
        <use x="276" y="192" xlink:href="#p" fill="#000000" />
        <use x="288" y="192" xlink:href="#p" fill="#000000" />
        <use x="336" y="192" xlink:href="#p" fill="#000000" />
        <use x="348" y="192" xlink:href="#p" fill="#000000" />
        <use x="360" y="192" xlink:href="#p" fill="#000000" />
        <use x="396" y="192" xlink:href="#p" fill="#000000" />
        <use x="420" y="192" xlink:href="#p" fill="#000000" />
        <use x="36" y="204" xlink:href="#p" fill="#000000" />
        <use x="60" y="204" xlink:href="#p" fill="#000000" />
        <use x="72" y="204" xlink:href="#p" fill="#000000" />
        <use x="96" y="204" xlink:href="#p" fill="#000000" />
        <use x="108" y="204" xlink:href="#p" fill="#000000" />
        <use x="120" y="204" xlink:href="#p" fill="#000000" />
        <use x="132" y="204" xlink:href="#p" fill="#000000" />
        <use x="144" y="204" xlink:href="#p" fill="#000000" />
        <use x="168" y="204" xlink:href="#p" fill="#000000" />
        <use x="180" y="204" xlink:href="#p" fill="#000000" />
        <use x="192" y="204" xlink:href="#p" fill="#000000" />
        <use x="216" y="204" xlink:href="#p" fill="#000000" />
        <use x="228" y="204" xlink:href="#p" fill="#000000" />
        <use x="240" y="204" xlink:href="#p" fill="#000000" />
        <use x="264" y="204" xlink:href="#p" fill="#000000" />
        <use x="276" y="204" xlink:href="#p" fill="#000000" />
        <use x="300" y="204" xlink:href="#p" fill="#000000" />
        <use x="312" y="204" xlink:href="#p" fill="#000000" />
        <use x="324" y="204" xlink:href="#p" fill="#000000" />
        <use x="336" y="204" xlink:href="#p" fill="#000000" />
        <use x="396" y="204" xlink:href="#p" fill="#000000" />
        <use x="408" y="204" xlink:href="#p" fill="#000000" />
        <use x="420" y="204" xlink:href="#p" fill="#000000" />
        <use x="36" y="216" xlink:href="#p" fill="#000000" />
        <use x="84" y="216" xlink:href="#p" fill="#000000" />
        <use x="120" y="216" xlink:href="#p" fill="#000000" />
        <use x="144" y="216" xlink:href="#p" fill="#000000" />
        <use x="192" y="216" xlink:href="#p" fill="#000000" />
        <use x="228" y="216" xlink:href="#p" fill="#000000" />
        <use x="240" y="216" xlink:href="#p" fill="#000000" />
        <use x="276" y="216" xlink:href="#p" fill="#000000" />
        <use x="288" y="216" xlink:href="#p" fill="#000000" />
        <use x="312" y="216" xlink:href="#p" fill="#000000" />
        <use x="324" y="216" xlink:href="#p" fill="#000000" />
        <use x="348" y="216" xlink:href="#p" fill="#000000" />
        <use x="372" y="216" xlink:href="#p" fill="#000000" />
        <use x="408" y="216" xlink:href="#p" fill="#000000" />
        <use x="48" y="228" xlink:href="#p" fill="#000000" />
        <use x="60" y="228" xlink:href="#p" fill="#000000" />
        <use x="72" y="228" xlink:href="#p" fill="#000000" />
        <use x="84" y="228" xlink:href="#p" fill="#000000" />
        <use x="96" y="228" xlink:href="#p" fill="#000000" />
        <use x="108" y="228" xlink:href="#p" fill="#000000" />
        <use x="120" y="228" xlink:href="#p" fill="#000000" />
        <use x="144" y="228" xlink:href="#p" fill="#000000" />
        <use x="168" y="228" xlink:href="#p" fill="#000000" />
        <use x="180" y="228" xlink:href="#p" fill="#000000" />
        <use x="192" y="228" xlink:href="#p" fill="#000000" />
        <use x="204" y="228" xlink:href="#p" fill="#000000" />
        <use x="216" y="228" xlink:href="#p" fill="#000000" />
        <use x="228" y="228" xlink:href="#p" fill="#000000" />
        <use x="240" y="228" xlink:href="#p" fill="#000000" />
        <use x="264" y="228" xlink:href="#p" fill="#000000" />
        <use x="276" y="228" xlink:href="#p" fill="#000000" />
        <use x="288" y="228" xlink:href="#p" fill="#000000" />
        <use x="312" y="228" xlink:href="#p" fill="#000000" />
        <use x="324" y="228" xlink:href="#p" fill="#000000" />
        <use x="336" y="228" xlink:href="#p" fill="#000000" />
        <use x="348" y="228" xlink:href="#p" fill="#000000" />
        <use x="396" y="228" xlink:href="#p" fill="#000000" />
        <use x="48" y="240" xlink:href="#p" fill="#000000" />
        <use x="60" y="240" xlink:href="#p" fill="#000000" />
        <use x="96" y="240" xlink:href="#p" fill="#000000" />
        <use x="132" y="240" xlink:href="#p" fill="#000000" />
        <use x="144" y="240" xlink:href="#p" fill="#000000" />
        <use x="156" y="240" xlink:href="#p" fill="#000000" />
        <use x="180" y="240" xlink:href="#p" fill="#000000" />
        <use x="192" y="240" xlink:href="#p" fill="#000000" />
        <use x="204" y="240" xlink:href="#p" fill="#000000" />
        <use x="276" y="240" xlink:href="#p" fill="#000000" />
        <use x="324" y="240" xlink:href="#p" fill="#000000" />
        <use x="348" y="240" xlink:href="#p" fill="#000000" />
        <use x="360" y="240" xlink:href="#p" fill="#000000" />
        <use x="408" y="240" xlink:href="#p" fill="#000000" />
        <use x="420" y="240" xlink:href="#p" fill="#000000" />
        <use x="36" y="252" xlink:href="#p" fill="#000000" />
        <use x="48" y="252" xlink:href="#p" fill="#000000" />
        <use x="84" y="252" xlink:href="#p" fill="#000000" />
        <use x="108" y="252" xlink:href="#p" fill="#000000" />
        <use x="192" y="252" xlink:href="#p" fill="#000000" />
        <use x="216" y="252" xlink:href="#p" fill="#000000" />
        <use x="228" y="252" xlink:href="#p" fill="#000000" />
        <use x="240" y="252" xlink:href="#p" fill="#000000" />
        <use x="288" y="252" xlink:href="#p" fill="#000000" />
        <use x="324" y="252" xlink:href="#p" fill="#000000" />
        <use x="336" y="252" xlink:href="#p" fill="#000000" />
        <use x="396" y="252" xlink:href="#p" fill="#000000" />
        <use x="72" y="264" xlink:href="#p" fill="#000000" />
        <use x="96" y="264" xlink:href="#p" fill="#000000" />
        <use x="180" y="264" xlink:href="#p" fill="#000000" />
        <use x="192" y="264" xlink:href="#p" fill="#000000" />
        <use x="204" y="264" xlink:href="#p" fill="#000000" />
        <use x="216" y="264" xlink:href="#p" fill="#000000" />
        <use x="228" y="264" xlink:href="#p" fill="#000000" />
        <use x="324" y="264" xlink:href="#p" fill="#000000" />
        <use x="360" y="264" xlink:href="#p" fill="#000000" />
        <use x="372" y="264" xlink:href="#p" fill="#000000" />
        <use x="408" y="264" xlink:href="#p" fill="#000000" />
        <use x="48" y="276" xlink:href="#p" fill="#000000" />
        <use x="60" y="276" xlink:href="#p" fill="#000000" />
        <use x="84" y="276" xlink:href="#p" fill="#000000" />
        <use x="96" y="276" xlink:href="#p" fill="#000000" />
        <use x="108" y="276" xlink:href="#p" fill="#000000" />
        <use x="132" y="276" xlink:href="#p" fill="#000000" />
        <use x="144" y="276" xlink:href="#p" fill="#000000" />
        <use x="156" y="276" xlink:href="#p" fill="#000000" />
        <use x="168" y="276" xlink:href="#p" fill="#000000" />
        <use x="180" y="276" xlink:href="#p" fill="#000000" />
        <use x="192" y="276" xlink:href="#p" fill="#000000" />
        <use x="312" y="276" xlink:href="#p" fill="#000000" />
        <use x="324" y="276" xlink:href="#p" fill="#000000" />
        <use x="348" y="276" xlink:href="#p" fill="#000000" />
        <use x="384" y="276" xlink:href="#p" fill="#000000" />
        <use x="408" y="276" xlink:href="#p" fill="#000000" />
        <use x="60" y="288" xlink:href="#p" fill="#000000" />
        <use x="96" y="288" xlink:href="#p" fill="#000000" />
        <use x="192" y="288" xlink:href="#p" fill="#000000" />
        <use x="216" y="288" xlink:href="#p" fill="#000000" />
        <use x="264" y="288" xlink:href="#p" fill="#000000" />
        <use x="288" y="288" xlink:href="#p" fill="#000000" />
        <use x="324" y="288" xlink:href="#p" fill="#000000" />
        <use x="336" y="288" xlink:href="#p" fill="#000000" />
        <use x="360" y="288" xlink:href="#p" fill="#000000" />
        <use x="372" y="288" xlink:href="#p" fill="#000000" />
        <use x="396" y="288" xlink:href="#p" fill="#000000" />
        <use x="408" y="288" xlink:href="#p" fill="#000000" />
        <use x="420" y="288" xlink:href="#p" fill="#000000" />
        <use x="36" y="300" xlink:href="#p" fill="#000000" />
        <use x="72" y="300" xlink:href="#p" fill="#000000" />
        <use x="84" y="300" xlink:href="#p" fill="#000000" />
        <use x="108" y="300" xlink:href="#p" fill="#000000" />
        <use x="120" y="300" xlink:href="#p" fill="#000000" />
        <use x="144" y="300" xlink:href="#p" fill="#000000" />
        <use x="168" y="300" xlink:href="#p" fill="#000000" />
        <use x="180" y="300" xlink:href="#p" fill="#000000" />
        <use x="240" y="300" xlink:href="#p" fill="#000000" />
        <use x="252" y="300" xlink:href="#p" fill="#000000" />
        <use x="300" y="300" xlink:href="#p" fill="#000000" />
        <use x="312" y="300" xlink:href="#p" fill="#000000" />
        <use x="348" y="300" xlink:href="#p" fill="#000000" />
        <use x="408" y="300" xlink:href="#p" fill="#000000" />
        <use x="420" y="300" xlink:href="#p" fill="#000000" />
        <use x="48" y="312" xlink:href="#p" fill="#000000" />
        <use x="120" y="312" xlink:href="#p" fill="#000000" />
        <use x="132" y="312" xlink:href="#p" fill="#000000" />
        <use x="216" y="312" xlink:href="#p" fill="#000000" />
        <use x="240" y="312" xlink:href="#p" fill="#000000" />
        <use x="252" y="312" xlink:href="#p" fill="#000000" />
        <use x="264" y="312" xlink:href="#p" fill="#000000" />
        <use x="288" y="312" xlink:href="#p" fill="#000000" />
        <use x="300" y="312" xlink:href="#p" fill="#000000" />
        <use x="312" y="312" xlink:href="#p" fill="#000000" />
        <use x="324" y="312" xlink:href="#p" fill="#000000" />
        <use x="372" y="312" xlink:href="#p" fill="#000000" />
        <use x="384" y="312" xlink:href="#p" fill="#000000" />
        <use x="36" y="324" xlink:href="#p" fill="#000000" />
        <use x="72" y="324" xlink:href="#p" fill="#000000" />
        <use x="108" y="324" xlink:href="#p" fill="#000000" />
        <use x="120" y="324" xlink:href="#p" fill="#000000" />
        <use x="132" y="324" xlink:href="#p" fill="#000000" />
        <use x="156" y="324" xlink:href="#p" fill="#000000" />
        <use x="240" y="324" xlink:href="#p" fill="#000000" />
        <use x="276" y="324" xlink:href="#p" fill="#000000" />
        <use x="288" y="324" xlink:href="#p" fill="#000000" />
        <use x="312" y="324" xlink:href="#p" fill="#000000" />
        <use x="324" y="324" xlink:href="#p" fill="#000000" />
        <use x="336" y="324" xlink:href="#p" fill="#000000" />
        <use x="348" y="324" xlink:href="#p" fill="#000000" />
        <use x="360" y="324" xlink:href="#p" fill="#000000" />
        <use x="372" y="324" xlink:href="#p" fill="#000000" />
        <use x="396" y="324" xlink:href="#p" fill="#000000" />
        <use x="132" y="336" xlink:href="#p" fill="#000000" />
        <use x="168" y="336" xlink:href="#p" fill="#000000" />
        <use x="204" y="336" xlink:href="#p" fill="#000000" />
        <use x="216" y="336" xlink:href="#p" fill="#000000" />
        <use x="240" y="336" xlink:href="#p" fill="#000000" />
        <use x="252" y="336" xlink:href="#p" fill="#000000" />
        <use x="276" y="336" xlink:href="#p" fill="#000000" />
        <use x="288" y="336" xlink:href="#p" fill="#000000" />
        <use x="300" y="336" xlink:href="#p" fill="#000000" />
        <use x="312" y="336" xlink:href="#p" fill="#000000" />
        <use x="324" y="336" xlink:href="#p" fill="#000000" />
        <use x="372" y="336" xlink:href="#p" fill="#000000" />
        <use x="384" y="336" xlink:href="#p" fill="#000000" />
        <use x="408" y="336" xlink:href="#p" fill="#000000" />
        <use x="420" y="336" xlink:href="#p" fill="#000000" />
        <use x="36" y="348" xlink:href="#p" fill="#000000" />
        <use x="48" y="348" xlink:href="#p" fill="#000000" />
        <use x="60" y="348" xlink:href="#p" fill="#000000" />
        <use x="72" y="348" xlink:href="#p" fill="#000000" />
        <use x="84" y="348" xlink:href="#p" fill="#000000" />
        <use x="96" y="348" xlink:href="#p" fill="#000000" />
        <use x="108" y="348" xlink:href="#p" fill="#000000" />
        <use x="156" y="348" xlink:href="#p" fill="#000000" />
        <use x="168" y="348" xlink:href="#p" fill="#000000" />
        <use x="204" y="348" xlink:href="#p" fill="#000000" />
        <use x="228" y="348" xlink:href="#p" fill="#000000" />
        <use x="252" y="348" xlink:href="#p" fill="#000000" />
        <use x="276" y="348" xlink:href="#p" fill="#000000" />
        <use x="300" y="348" xlink:href="#p" fill="#000000" />
        <use x="312" y="348" xlink:href="#p" fill="#000000" />
        <use x="324" y="348" xlink:href="#p" fill="#000000" />
        <use x="348" y="348" xlink:href="#p" fill="#000000" />
        <use x="372" y="348" xlink:href="#p" fill="#000000" />
        <use x="396" y="348" xlink:href="#p" fill="#000000" />
        <use x="36" y="360" xlink:href="#p" fill="#000000" />
        <use x="108" y="360" xlink:href="#p" fill="#000000" />
        <use x="156" y="360" xlink:href="#p" fill="#000000" />
        <use x="168" y="360" xlink:href="#p" fill="#000000" />
        <use x="180" y="360" xlink:href="#p" fill="#000000" />
        <use x="204" y="360" xlink:href="#p" fill="#000000" />
        <use x="216" y="360" xlink:href="#p" fill="#000000" />
        <use x="240" y="360" xlink:href="#p" fill="#000000" />
        <use x="252" y="360" xlink:href="#p" fill="#000000" />
        <use x="276" y="360" xlink:href="#p" fill="#000000" />
        <use x="288" y="360" xlink:href="#p" fill="#000000" />
        <use x="300" y="360" xlink:href="#p" fill="#000000" />
        <use x="312" y="360" xlink:href="#p" fill="#000000" />
        <use x="324" y="360" xlink:href="#p" fill="#000000" />
        <use x="372" y="360" xlink:href="#p" fill="#000000" />
        <use x="408" y="360" xlink:href="#p" fill="#000000" />
        <use x="420" y="360" xlink:href="#p" fill="#000000" />
        <use x="36" y="372" xlink:href="#p" fill="#000000" />
        <use x="60" y="372" xlink:href="#p" fill="#000000" />
        <use x="72" y="372" xlink:href="#p" fill="#000000" />
        <use x="84" y="372" xlink:href="#p" fill="#000000" />
        <use x="108" y="372" xlink:href="#p" fill="#000000" />
        <use x="132" y="372" xlink:href="#p" fill="#000000" />
        <use x="144" y="372" xlink:href="#p" fill="#000000" />
        <use x="156" y="372" xlink:href="#p" fill="#000000" />
        <use x="180" y="372" xlink:href="#p" fill="#000000" />
        <use x="192" y="372" xlink:href="#p" fill="#000000" />
        <use x="204" y="372" xlink:href="#p" fill="#000000" />
        <use x="228" y="372" xlink:href="#p" fill="#000000" />
        <use x="252" y="372" xlink:href="#p" fill="#000000" />
        <use x="264" y="372" xlink:href="#p" fill="#000000" />
        <use x="276" y="372" xlink:href="#p" fill="#000000" />
        <use x="300" y="372" xlink:href="#p" fill="#000000" />
        <use x="324" y="372" xlink:href="#p" fill="#000000" />
        <use x="336" y="372" xlink:href="#p" fill="#000000" />
        <use x="348" y="372" xlink:href="#p" fill="#000000" />
        <use x="360" y="372" xlink:href="#p" fill="#000000" />
        <use x="372" y="372" xlink:href="#p" fill="#000000" />
        <use x="384" y="372" xlink:href="#p" fill="#000000" />
        <use x="408" y="372" xlink:href="#p" fill="#000000" />
        <use x="36" y="384" xlink:href="#p" fill="#000000" />
        <use x="60" y="384" xlink:href="#p" fill="#000000" />
        <use x="72" y="384" xlink:href="#p" fill="#000000" />
        <use x="84" y="384" xlink:href="#p" fill="#000000" />
        <use x="108" y="384" xlink:href="#p" fill="#000000" />
        <use x="192" y="384" xlink:href="#p" fill="#000000" />
        <use x="204" y="384" xlink:href="#p" fill="#000000" />
        <use x="216" y="384" xlink:href="#p" fill="#000000" />
        <use x="228" y="384" xlink:href="#p" fill="#000000" />
        <use x="252" y="384" xlink:href="#p" fill="#000000" />
        <use x="264" y="384" xlink:href="#p" fill="#000000" />
        <use x="276" y="384" xlink:href="#p" fill="#000000" />
        <use x="300" y="384" xlink:href="#p" fill="#000000" />
        <use x="312" y="384" xlink:href="#p" fill="#000000" />
        <use x="324" y="384" xlink:href="#p" fill="#000000" />
        <use x="372" y="384" xlink:href="#p" fill="#000000" />
        <use x="396" y="384" xlink:href="#p" fill="#000000" />
        <use x="36" y="396" xlink:href="#p" fill="#000000" />
        <use x="60" y="396" xlink:href="#p" fill="#000000" />
        <use x="72" y="396" xlink:href="#p" fill="#000000" />
        <use x="84" y="396" xlink:href="#p" fill="#000000" />
        <use x="108" y="396" xlink:href="#p" fill="#000000" />
        <use x="132" y="396" xlink:href="#p" fill="#000000" />
        <use x="144" y="396" xlink:href="#p" fill="#000000" />
        <use x="192" y="396" xlink:href="#p" fill="#000000" />
        <use x="204" y="396" xlink:href="#p" fill="#000000" />
        <use x="216" y="396" xlink:href="#p" fill="#000000" />
        <use x="228" y="396" xlink:href="#p" fill="#000000" />
        <use x="252" y="396" xlink:href="#p" fill="#000000" />
        <use x="264" y="396" xlink:href="#p" fill="#000000" />
        <use x="276" y="396" xlink:href="#p" fill="#000000" />
        <use x="300" y="396" xlink:href="#p" fill="#000000" />
        <use x="324" y="396" xlink:href="#p" fill="#000000" />
        <use x="336" y="396" xlink:href="#p" fill="#000000" />
        <use x="372" y="396" xlink:href="#p" fill="#000000" />
        <use x="384" y="396" xlink:href="#p" fill="#000000" />
        <use x="396" y="396" xlink:href="#p" fill="#000000" />
        <use x="420" y="396" xlink:href="#p" fill="#000000" />
        <use x="36" y="408" xlink:href="#p" fill="#000000" />
        <use x="108" y="408" xlink:href="#p" fill="#000000" />
        <use x="156" y="408" xlink:href="#p" fill="#000000" />
        <use x="228" y="408" xlink:href="#p" fill="#000000" />
        <use x="240" y="408" xlink:href="#p" fill="#000000" />
        <use x="276" y="408" xlink:href="#p" fill="#000000" />
        <use x="288" y="408" xlink:href="#p" fill="#000000" />
        <use x="300" y="408" xlink:href="#p" fill="#000000" />
        <use x="312" y="408" xlink:href="#p" fill="#000000" />
        <use x="348" y="408" xlink:href="#p" fill="#000000" />
        <use x="372" y="408" xlink:href="#p" fill="#000000" />
        <use x="384" y="408" xlink:href="#p" fill="#000000" />
        <use x="396" y="408" xlink:href="#p" fill="#000000" />
        <use x="408" y="408" xlink:href="#p" fill="#000000" />
        <use x="36" y="420" xlink:href="#p" fill="#000000" />
        <use x="48" y="420" xlink:href="#p" fill="#000000" />
        <use x="60" y="420" xlink:href="#p" fill="#000000" />
        <use x="72" y="420" xlink:href="#p" fill="#000000" />
        <use x="84" y="420" xlink:href="#p" fill="#000000" />
        <use x="96" y="420" xlink:href="#p" fill="#000000" />
        <use x="108" y="420" xlink:href="#p" fill="#000000" />
        <use x="132" y="420" xlink:href="#p" fill="#000000" />
        <use x="204" y="420" xlink:href="#p" fill="#000000" />
        <use x="216" y="420" xlink:href="#p" fill="#000000" />
        <use x="252" y="420" xlink:href="#p" fill="#000000" />
        <use x="264" y="420" xlink:href="#p" fill="#000000" />
        <use x="276" y="420" xlink:href="#p" fill="#000000" />
        <use x="288" y="420" xlink:href="#p" fill="#000000" />
        <use x="300" y="420" xlink:href="#p" fill="#000000" />
        <use x="312" y="420" xlink:href="#p" fill="#000000" />
        <use x="348" y="420" xlink:href="#p" fill="#000000" />
        <use x="372" y="420" xlink:href="#p" fill="#000000" />
        <use x="396" y="420" xlink:href="#p" fill="#000000" />
        <use x="408" y="420" xlink:href="#p" fill="#000000" />
        <use x="420" y="420" xlink:href="#p" fill="#000000" />
    </g>
</svg>